<svg width="137" height="26" viewBox="0 0 137 26" fill="none" xmlns="http://www.w3.org/2000/svg">
<g style="mix-blend-mode:color-burn">
<path d="M-0.00568163 25V0.272727H8.34943C10.2813 0.272727 11.867 0.602745 13.1065 1.26278C14.3461 1.91477 15.2637 2.81226 15.8594 3.95526C16.455 5.09825 16.7528 6.3982 16.7528 7.85511C16.7528 9.31203 16.455 10.6039 15.8594 11.7308C15.2637 12.8577 14.3501 13.7431 13.1186 14.3871C11.8871 15.023 10.3134 15.3409 8.39773 15.3409H1.63636V12.6364H8.30114C9.62121 12.6364 10.6837 12.4432 11.4886 12.0568C12.3016 11.6705 12.8892 11.1231 13.2514 10.4148C13.6217 9.69839 13.8068 8.84517 13.8068 7.85511C13.8068 6.86506 13.6217 5.99976 13.2514 5.25923C12.8812 4.5187 12.2895 3.94721 11.4766 3.54474C10.6636 3.13423 9.58902 2.92898 8.25284 2.92898H2.98864V25H-0.00568163ZM11.6335 13.892L17.7188 25H14.2415L8.25284 13.892H11.6335ZM28.9324 25.3864C27.1454 25.3864 25.604 24.992 24.3081 24.2031C23.0202 23.4062 22.0261 22.2955 21.3258 20.8707C20.6336 19.438 20.2875 17.7718 20.2875 15.8722C20.2875 13.9725 20.6336 12.2983 21.3258 10.8494C22.0261 9.39252 23.0001 8.25758 24.2477 7.4446C25.5034 6.62358 26.9683 6.21307 28.6426 6.21307C29.6085 6.21307 30.5623 6.37405 31.5041 6.69602C32.4458 7.01799 33.3031 7.54119 34.0758 8.26562C34.8485 8.98201 35.4643 9.93182 35.9231 11.1151C36.3819 12.2983 36.6113 13.7552 36.6113 15.4858V16.6932H22.3159V14.2301H33.7136C33.7136 13.1837 33.5043 12.25 33.0858 11.429C32.6752 10.608 32.0877 9.95999 31.323 9.48508C30.5663 9.01018 29.6729 8.77273 28.6426 8.77273C27.5076 8.77273 26.5256 9.05445 25.6966 9.6179C24.8755 10.1733 24.2437 10.8977 23.801 11.7912C23.3583 12.6847 23.1369 13.6425 23.1369 14.6648V16.3068C23.1369 17.7074 23.3784 18.8946 23.8613 19.8686C24.3523 20.8345 25.0325 21.571 25.9018 22.0781C26.7711 22.5772 27.7813 22.8267 28.9324 22.8267C29.6809 22.8267 30.3571 22.7221 30.9608 22.5128C31.5725 22.2955 32.0997 21.9735 32.5424 21.5469C32.9851 21.1122 33.3272 20.5729 33.5687 19.929L36.3216 20.7017C36.0318 21.6354 35.5448 22.4564 34.8606 23.1648C34.1764 23.8651 33.3313 24.4124 32.3251 24.8068C31.319 25.1932 30.188 25.3864 28.9324 25.3864ZM60.9402 0.272727V25H58.0424L44.568 5.58523H44.3265V25H41.3322V0.272727H44.2299L57.7527 19.7358H57.9941V0.272727H60.9402ZM65.5795 2.92898V0.272727H84.125V2.92898H76.3494V25H73.3551V2.92898H65.5795ZM91.7406 0.272727V25H88.7463V0.272727H91.7406ZM97.7443 25V0.272727H112.571V2.92898H100.739V11.2841H111.46V13.9403H100.739V25H97.7443ZM115.574 0.272727H119.003L125.861 11.8153H126.151L133.009 0.272727H136.438L127.503 14.8097V25H124.509V14.8097L115.574 0.272727Z" fill="#07A4FC" fill-opacity="0.95"/>
</g>
</svg>
